<?xml version="1.0" encoding="utf-8"?>
<!-- Generator: Adobe Illustrator 27.3.1, SVG Export Plug-In . SVG Version: 6.00 Build 0)  -->
<svg version="1.2" xmlns:xlink="http://www.w3.org/1999/xlink" viewBox="0 0 238.5 154.64" baseProfile="tiny-ps" xmlns="http://www.w3.org/2000/svg">
  <title>Studio Click House Ltd.</title>

<g>
	<g>
		<path d="M38.7,119.17v1.6c-1.09-0.49-1.95-0.73-2.6-0.73c-0.37,0-0.66,0.06-0.88,0.18c-0.22,0.12-0.33,0.29-0.33,0.49    c0,0.16,0.08,0.3,0.23,0.45c0.16,0.14,0.54,0.32,1.14,0.54c0.61,0.22,1.09,0.43,1.45,0.62c0.36,0.19,0.68,0.46,0.94,0.81    c0.26,0.35,0.4,0.79,0.4,1.32c0,0.76-0.29,1.36-0.86,1.81c-0.58,0.45-1.33,0.67-2.28,0.67c-1.02,0-2-0.26-2.95-0.79v-1.76    c0.55,0.37,1.03,0.63,1.45,0.8c0.42,0.17,0.87,0.25,1.34,0.25c0.8,0,1.2-0.25,1.2-0.76c0-0.17-0.08-0.33-0.24-0.49    c-0.16-0.15-0.55-0.34-1.16-0.56c-0.61-0.22-1.1-0.42-1.45-0.61s-0.67-0.46-0.93-0.8c-0.26-0.35-0.39-0.79-0.39-1.34    c0-0.7,0.28-1.27,0.85-1.7c0.57-0.43,1.32-0.65,2.27-0.65C36.8,118.54,37.72,118.75,38.7,119.17z" fill="#595A5C" />
		<path d="M47.78,118.65v1.5h-2.96v6.69h-2.04v-6.69h-2.96v-1.5H47.78z" fill="#595A5C" />
		<path d="M55.09,118.65h2.04v4.65c0,1.2-0.35,2.1-1.06,2.72c-0.71,0.62-1.72,0.93-3.03,0.93c-1.3,0-2.3-0.31-3.02-0.94    c-0.72-0.62-1.08-1.52-1.08-2.7v-4.66h2.04v4.71c0,0.57,0.19,1.03,0.56,1.37c0.37,0.34,0.86,0.52,1.47,0.52    c0.63,0,1.13-0.18,1.51-0.53c0.38-0.35,0.57-0.85,0.57-1.5V118.65z" fill="#595A5C" />
		<path d="M58.89,118.65h3.61c1.39,0,2.5,0.38,3.31,1.15c0.81,0.76,1.22,1.75,1.22,2.96c0,1.27-0.41,2.27-1.23,2.99    c-0.82,0.72-2,1.09-3.52,1.09h-3.38V118.65z M60.93,120.15v5.19h1.33c0.86,0,1.52-0.24,1.98-0.71s0.69-1.1,0.69-1.88    c0-0.8-0.23-1.44-0.69-1.9c-0.46-0.46-1.13-0.69-2-0.69H60.93z" fill="#595A5C" />
		<path d="M70.63,118.65v8.19h-2.04v-8.19H70.63z" fill="#595A5C" />
		<path d="M76.86,118.54c1.39,0,2.52,0.42,3.39,1.26c0.86,0.84,1.29,1.82,1.29,2.94c0,1.13-0.44,2.12-1.31,2.95    c-0.88,0.83-2,1.25-3.37,1.25c-1.39,0-2.52-0.41-3.39-1.24c-0.87-0.83-1.31-1.81-1.31-2.95c0-1.12,0.43-2.1,1.3-2.94    C74.33,118.96,75.46,118.54,76.86,118.54z M76.86,125.24c0.77,0,1.4-0.23,1.87-0.69c0.47-0.46,0.71-1.06,0.71-1.81    c0-0.75-0.24-1.35-0.71-1.81c-0.47-0.46-1.1-0.69-1.87-0.69c-0.78,0-1.4,0.23-1.88,0.69c-0.47,0.46-0.71,1.06-0.71,1.81    c0,0.75,0.24,1.35,0.71,1.81C75.46,125.01,76.08,125.24,76.86,125.24z" fill="#595A5C" />
		<path d="M93.98,124.34v1.79c-1.02,0.54-2.1,0.81-3.22,0.81c-1.45,0-2.61-0.4-3.47-1.2c-0.86-0.8-1.29-1.79-1.29-2.97    c0-1.18,0.45-2.17,1.36-2.99s2.09-1.23,3.56-1.23c1.17,0,2.16,0.24,2.96,0.72v1.82c-0.99-0.56-1.93-0.84-2.82-0.84    c-0.87,0-1.58,0.23-2.14,0.7c-0.55,0.47-0.83,1.06-0.83,1.78c0,0.73,0.27,1.33,0.82,1.8c0.54,0.47,1.24,0.71,2.09,0.71    c0.42,0,0.83-0.06,1.22-0.17C92.62,124.96,93.21,124.71,93.98,124.34z" fill="#595A5C" />
		<path d="M101.84,125.33v1.5H95.6v-8.19h2.04v6.69H101.84z" fill="#595A5C" />
		<path d="M105.1,118.65v8.19h-2.04v-8.19H105.1z" fill="#595A5C" />
		<path d="M114.61,124.34v1.79c-1.02,0.54-2.1,0.81-3.22,0.81c-1.45,0-2.61-0.4-3.47-1.2c-0.86-0.8-1.29-1.79-1.29-2.97    c0-1.18,0.45-2.17,1.36-2.99c0.91-0.82,2.09-1.23,3.56-1.23c1.17,0,2.16,0.24,2.96,0.72v1.82c-0.99-0.56-1.93-0.84-2.82-0.84    c-0.87,0-1.58,0.23-2.14,0.7c-0.55,0.47-0.83,1.06-0.83,1.78c0,0.73,0.27,1.33,0.82,1.8c0.54,0.47,1.24,0.71,2.09,0.71    c0.42,0,0.83-0.06,1.22-0.17C113.26,124.96,113.84,124.71,114.61,124.34z" fill="#595A5C" />
		<path d="M123.11,118.65l-2.67,3.85l3.62,4.34h-2.55l-3.25-3.84v3.84h-2.04v-8.19h2.04v3.69l2.6-3.69H123.11z" fill="#595A5C" />
		<path d="M136.37,118.65v8.19h-2.04v-3.31h-4.08v3.31h-2.04v-8.19h2.04v3.29h4.08v-3.29H136.37z" fill="#595A5C" />
		<path d="M142.54,118.54c1.39,0,2.52,0.42,3.39,1.26c0.86,0.84,1.29,1.82,1.29,2.94c0,1.13-0.44,2.12-1.31,2.95    c-0.88,0.83-2,1.25-3.37,1.25c-1.39,0-2.52-0.41-3.39-1.24c-0.87-0.83-1.31-1.81-1.31-2.95c0-1.12,0.43-2.1,1.3-2.94    C140.01,118.96,141.14,118.54,142.54,118.54z M142.54,125.24c0.77,0,1.4-0.23,1.87-0.69c0.47-0.46,0.71-1.06,0.71-1.81    c0-0.75-0.24-1.35-0.71-1.81c-0.47-0.46-1.1-0.69-1.87-0.69c-0.78,0-1.4,0.23-1.88,0.69c-0.47,0.46-0.71,1.06-0.71,1.81    c0,0.75,0.24,1.35,0.71,1.81C141.13,125.01,141.76,125.24,142.54,125.24z" fill="#595A5C" />
		<path d="M154.77,118.65h2.04v4.65c0,1.2-0.35,2.1-1.06,2.72c-0.71,0.62-1.72,0.93-3.03,0.93    c-1.3,0-2.3-0.31-3.02-0.94s-1.08-1.52-1.08-2.7v-4.66h2.04v4.71c0,0.57,0.19,1.03,0.56,1.37c0.37,0.34,0.86,0.52,1.47,0.52    c0.63,0,1.13-0.18,1.51-0.53c0.38-0.35,0.57-0.85,0.57-1.5V118.65z" fill="#595A5C" />
		<path d="M164.13,119.17v1.6c-1.09-0.49-1.95-0.73-2.6-0.73c-0.37,0-0.66,0.06-0.88,0.18    c-0.22,0.12-0.33,0.29-0.33,0.49c0,0.16,0.08,0.3,0.23,0.45c0.16,0.14,0.54,0.32,1.14,0.54c0.61,0.22,1.09,0.43,1.45,0.62    s0.68,0.46,0.94,0.81c0.26,0.35,0.4,0.79,0.4,1.32c0,0.76-0.29,1.36-0.86,1.81c-0.58,0.45-1.33,0.67-2.28,0.67    c-1.02,0-2-0.26-2.95-0.79v-1.76c0.55,0.37,1.03,0.63,1.45,0.8c0.42,0.17,0.87,0.25,1.34,0.25c0.8,0,1.2-0.25,1.2-0.76    c0-0.17-0.08-0.33-0.24-0.49c-0.16-0.15-0.55-0.34-1.16-0.56c-0.61-0.22-1.1-0.42-1.45-0.61c-0.36-0.19-0.67-0.46-0.93-0.8    c-0.26-0.35-0.39-0.79-0.39-1.34c0-0.7,0.28-1.27,0.85-1.7c0.57-0.43,1.32-0.65,2.27-0.65    C162.23,118.54,163.16,118.75,164.13,119.17z" fill="#595A5C" />
		<path d="M171.88,125.33v1.5h-6.04v-8.19h5.95v1.5h-3.91v1.72h3.73v1.5h-3.73v1.97H171.88z" fill="#595A5C" />
		<path d="M183.01,125.33v1.5h-6.24v-8.19h2.04v6.69H183.01z" fill="#595A5C" />
		<path d="M190.04,118.65v1.5h-2.96v6.69h-2.04v-6.69h-2.96v-1.5H190.04z" fill="#595A5C" />
		<path d="M191.28,118.65h3.61c1.39,0,2.5,0.38,3.31,1.15c0.81,0.76,1.22,1.75,1.22,2.96c0,1.27-0.41,2.27-1.23,2.99    s-2,1.09-3.52,1.09h-3.38V118.65z M193.31,120.15v5.19h1.33c0.86,0,1.52-0.24,1.98-0.71s0.69-1.1,0.69-1.88    c0-0.8-0.23-1.44-0.69-1.9c-0.46-0.46-1.13-0.69-2-0.69H193.31z" fill="#595A5C" />
	</g>
</g>
<g>
	<path d="M96.79,58.62c0,0-23.41,0-35.4,0c-20.66,0-24.85,7.23-24.85,14.74c0,7.51,3.47,14.88,22.69,14.88   c15.61,0,19.36,0,24.13,0c4.77,0,4.77,1.16,4.77,4.48c0,7.51,11.85,16.33,29.33,16.33c17.49,0,30.27,0,30.27,0v-20.1h30.69v20.1   h15.34V58.62h-15.34v17.77h-30.69V58.62h-15.1v37.43c0,0-13.15,0-17.49,0c-10.84,0-15.17-5.35-15.17-9.83s-3.47-7.35-16.18-7.35   c-14.02,0-19.65,0-24.57,0s-7.8-0.02-7.8-4.06c0-4.05,2.75-3.32,7.23-3.32s25.58,0,25.58,0S86.82,63.24,96.79,58.62z" fill="#7AA340" />
	<path d="M100.98,79.68c0,0-3.18-4.16-15.17-4.59c1.73-4.19,8.24-14.74,32.08-22.4c23.84-7.66,37.57-10.26,46.39-10.69   C151.99,43.88,117.02,53.79,100.98,79.68z" fill="#595A5C" />
	<path d="M35.08,109.05l9.68-13.15h39.59c0,0,2.89,7.23,9.54,10.4c-2.6,2.31-7.95,2.75-11.42,2.75   C79.01,109.05,35.08,109.05,35.08,109.05z" fill="#595A5C" />
	<polygon points="168.29,57.39 174.79,42.36 192.86,38.75 174.22,37.88 162.94,27.34 203.69,38.03  " fill="#595A5C" />
</g>
</svg>